Coordinates
version=1
nRows=26
nColumns=24
inDegrees=yes

Units are S.I. units (second, meters, Newtons, ...)
Angles are in degrees.

endheader
time	pelvis_tilt	pelvis_list	pelvis_rotation	pelvis_tx	pelvis_ty	pelvis_tz	hip_flexion_r	hip_adduction_r	hip_rotation_r	knee_angle_r	ankle_angle_r	subtalar_angle_r	mtp_angle_r	hip_flexion_l	hip_adduction_l	hip_rotation_l	knee_angle_l	ankle_angle_l	subtalar_angle_l	mtp_angle_l	lumbar_extension	lumbar_bending	lumbar_rotation
      4.64000000	     -9.59897304	     -9.36952354	      6.67914008	     -1.56061674	     -0.01623988	      0.44287979	     18.51712717	      9.72351878	     -9.09295504	     -9.18644497	     -6.99809623	     -0.65548270	      5.57294121	     16.89397969	     -9.60256278	      5.06197636	    -57.50430438	    -28.14848632	     -7.85768751	     24.50394740	      9.53413892	      7.40124004	     -7.95517296
      4.64500000	     -9.42938721	     -9.32877146	      6.67016597	     -1.55518591	     -0.01571513	      0.44357618	     17.88139853	      9.84962107	     -8.89702710	     -9.06331921	     -6.69402631	     -0.70894335	      5.47439494	     17.55563667	     -9.53457371	      4.99889787	    -58.46025075	    -27.86448301	     -9.78551751	     23.12052629	      9.32567722	      7.33225862	     -7.68846431
      4.65000000	     -9.26037833	     -9.26396363	      6.67735953	     -1.54980089	     -0.01517751	      0.44428258	     17.23735915	      9.95619883	     -8.67266955	     -8.92344488	     -6.42446697	     -0.88169320	      5.31812195	     18.21162357	     -9.44012594	      4.95209700	    -59.31502136	    -27.57193088	    -11.51644117	     21.89907958	      9.11730301	      7.23090517	     -7.40677970
      4.65500000	     -9.10426246	     -9.20037323	      6.66027399	     -1.54437945	     -0.01462253	      0.44497829	     16.58641113	     10.07164054	     -8.43096556	     -8.74686681	     -6.23141695	     -1.09102055	      5.12056725	     18.84847104	     -9.35906333	      4.87296434	    -60.04486526	    -27.20200443	    -13.06018644	     20.92140483	      8.93567750	      7.13586150	     -7.13304635
      4.66000000	     -8.97481619	     -8.98929907	      6.64075315	     -1.53904888	     -0.01399620	      0.44567187	     15.94308077	     10.03095778	     -8.03794381	     -8.57691744	     -6.00742222	     -1.38942347	      4.87860923	     19.46588902	     -9.09354358	      4.79587703	    -60.65025023	    -26.80266655	    -14.33637501	     19.95033975	      8.75417219	      6.87731883	     -6.83101306
      4.66500000	     -8.84399815	     -8.80170525	      6.58261891	     -1.53376621	     -0.01337226	      0.44635598	     15.30228184	     10.02146522	     -7.63873646	     -8.40315514	     -5.85099958	     -1.71231479	      4.60536443	     20.06793489	     -8.86975359	      4.67924128	    -61.16709741	    -26.28545542	    -15.35358205	     19.14946371	      8.56649639	      6.66496083	     -6.46458948
      4.67000000	     -8.73860651	     -8.57846330	      6.51725089	     -1.52842721	     -0.01273249	      0.44707776	     14.65931768	      9.97569188	     -7.21323931	     -8.19032336	     -5.70882837	     -2.06324650	      4.32520625	     20.65781053	     -8.61866634	      4.53418916	    -61.55497737	    -25.65212097	    -16.08629085	     18.54088724	      8.41886643	      6.40211040	     -6.10353214
      4.67500000	     -8.66858017	     -8.29236061	      6.44148433	     -1.52314459	     -0.01206337	      0.44778533	     14.05174445	      9.85275427	     -6.80228349	     -7.98182089	     -5.56779348	     -2.38518499	      4.06500391	     21.24520240	     -8.28785883	      4.38856356	    -61.80437723	    -25.00811600	    -16.61774467	     18.22841860	      8.29509353	      6.07232178	     -5.72738390
      4.68000000	     -8.63028627	     -7.96590056	      6.36935616	     -1.51790543	     -0.01138434	      0.44845618	     13.48258922	      9.66934850	     -6.44851107	     -7.78326184	     -5.42152429	     -2.64044552	      3.85809711	     21.83327145	     -7.90611976	      4.23514603	    -61.92375964	    -24.30975845	    -16.96219065	     18.15147051	      8.20287708	      5.69988552	     -5.38644030
      4.68500000	     -8.60368989	     -7.62521067	      6.25352514	     -1.51262027	     -0.01069646	      0.44919407	     12.88756535	      9.47781213	     -6.00406586	     -7.52684048	     -5.28010377	     -2.87755104	      3.63390518	     22.39530006	     -7.53330167	      4.02504415	    -61.93167044	    -23.57135518	    -17.09445834	     18.17533384	      8.12865979	      5.31457080	     -4.98200771
      4.69000000	     -8.64161369	     -7.26808702	      6.24990915	     -1.50741595	     -0.01005266	      0.44972351	     12.37548170	      9.20973014	     -5.77539159	     -7.26983996	     -5.10772455	     -2.94933317	      3.55905937	     23.03369207	     -7.06615346	      3.93166698	    -61.83379949	    -22.94159148	    -17.24712496	     18.29722078	      8.13083214	      4.88974011	     -4.75184391
      4.69500000	     -8.63715802	     -6.84955409	      6.00046857	     -1.50224531	     -0.00936008	      0.45060087	     11.83125680	      8.94277010	     -5.30430244	     -7.07260754	     -4.93404878	     -3.08735222	      3.41367825	     23.52635314	     -6.67132252	      3.56403646	    -61.60831922	    -22.04021200	    -16.98289080	     18.62732444	      8.04651912	      4.44672249	     -4.21359693
      4.70000000	     -8.66349708	     -6.46282926	      5.84075899	     -1.49701149	     -0.00870307	      0.45131474	     11.27956605	      8.66991616	     -4.93376161	     -6.77930449	     -4.79412694	     -3.13670638	      3.31761698	     24.05845736	     -6.26036018	      3.29751015	    -61.29987172	    -21.21377987	    -16.65815974	     18.94850116	      8.03105119	      4.02481463	     -3.79149641
      4.70500000	     -8.70745923	     -6.07222475	      5.66566137	     -1.49183673	     -0.00810980	      0.45202353	     10.77325510	      8.37998614	     -4.61130331	     -6.52493558	     -4.61662325	     -3.11051025	      3.30555360	     24.59090513	     -5.84836208	      3.00981303	    -60.90650368	    -20.40035703	    -16.31444711	     19.28691806	      8.02623203	      3.59980481	     -3.37223067
      4.71000000	     -8.75608815	     -5.69689175	      5.47441418	     -1.48664171	     -0.00756726	      0.45268562	     10.26942369	      8.09596681	     -4.30577727	     -6.25806962	     -4.42783332	     -3.02487114	      3.33095608	     25.10954621	     -5.45789326	      2.70424334	    -60.43679800	    -19.60447587	    -15.92085707	     19.62620566	      8.03910250	      3.20247038	     -2.94348078
      4.71500000	     -8.80164187	     -5.34302151	      5.26077850	     -1.48145004	     -0.00708970	      0.45333931	      9.77348457	      7.82976578	     -4.00589904	     -6.00278544	     -4.22960604	     -2.90512301	      3.38023548	     25.60870980	     -5.09909798	      2.38551959	    -59.89989831	    -18.81604346	    -15.51066622	     19.94092782	      8.05245845	      2.83516057	     -2.50635985
      4.72000000	     -8.83838928	     -5.01947037	      5.03070058	     -1.47624301	     -0.00668571	      0.45395562	      9.27661371	      7.59008567	     -3.70270725	     -5.75622469	     -4.02349301	     -2.77130866	      3.43707885	     26.08646808	     -4.77950305	      2.05792097	    -59.30564806	    -18.04249449	    -15.10536576	     20.20658099	      8.06565070	      2.50979399	     -2.06669479
      4.72500000	     -8.88105314	     -4.70906310	      4.79523340	     -1.47104292	     -0.00637002	      0.45449136	      8.80724701	      7.35441090	     -3.41993926	     -5.54261529	     -3.80389045	     -2.65806534	      3.49289986	     26.55694323	     -4.46784946	      1.72679323	    -58.64991872	    -17.32716738	    -14.79109545	     20.40695404	      8.09122062	      2.21515133	     -1.63865247
      4.73000000	     -8.89049569	     -4.45524523	      4.50926904	     -1.46576228	     -0.00610391	      0.45508734	      8.29237088	      7.18787058	     -3.08218021	     -5.30680854	     -3.60398632	     -2.52001539	      3.53147191	     26.98027082	     -4.26058585	      1.35023539	    -57.95395244	    -16.61378501	    -14.42910491	     20.56110414	      8.09789708	      1.98407519	     -1.15383955
      4.73500000	     -8.89962574	     -4.21693193	      4.22228944	     -1.46048199	     -0.00592614	      0.45560701	      7.79612913	      7.02960214	     -2.74407022	     -5.10324456	     -3.39627753	     -2.43441492	      3.54600206	     27.39184789	     -4.06374989	      0.97772925	    -57.20772512	    -15.94748994	    -14.16051163	     20.62839754	      8.10880758	      1.78291581	     -0.68858197
      4.74000000	     -8.91294301	     -3.99352823	      3.93796530	     -1.45519683	     -0.00583575	      0.45606835	      7.32243321	      6.87933668	     -2.39958084	     -4.93258172	     -3.17306392	     -2.39296928	      3.54779133	     27.79501838	     -3.87579427	      0.62104703	    -56.40822032	    -15.33386994	    -13.98468876	     20.63460419	      8.12902142	      1.60157226	     -0.24975220
      4.74500000	     -8.87704019	     -3.82004594	      3.58860250	     -1.44986412	     -0.00576749	      0.45657782	      6.78326426	      6.79158270	     -1.97177797	     -4.73390860	     -2.99602853	     -2.37143574	      3.49148274	     28.13533259	     -3.79794224	      0.18326196	    -55.58394547	    -14.72046640	    -13.77874441	     20.52640618	      8.10561087	      1.49634306	      0.27054343
      4.75000000	     -8.82907042	     -3.64353176	      3.27524557	     -1.44452249	     -0.00575212	      0.45701129	      6.23516573	      6.69234746	     -1.51312390	     -4.54870042	     -2.83845971	     -2.49466774	      3.35796447	     28.44763601	     -3.69501911	     -0.21593469	    -54.71553438	    -14.08854664	    -13.58456023	     20.19332102	      8.07294227	      1.38741115	      0.71205180
      4.75500000	     -8.87425124	     -3.46481084	      2.97569390	     -1.43919353	     -0.00588257	      0.45739243	      5.82208105	      6.57040437	     -1.17697028	     -4.41418205	     -2.58941046	     -2.47014379	      3.38346874	     28.84718553	     -3.57408751	     -0.57893904	    -53.76702446	    -13.65829299	    -13.57052603	     20.10614881	      8.14263689	      1.26875298	      1.14505986
      4.76000000	     -8.86319508	     -3.29753504	      2.58338389	     -1.43387374	     -0.00598359	      0.45786300	      5.36034024	      6.47276509	     -0.74598146	     -4.30093833	     -2.37536313	     -2.48446589	      3.34107287	     29.14992011	     -3.52979695	     -1.04299981	    -52.76358109	    -13.20163433	    -13.54689880	     19.88974184	      8.14408311	      1.18707765	      1.67061037
      4.76500000	     -8.84832766	     -3.12841897	      2.21945200	     -1.42855767	     -0.00611956	      0.45826914	      4.89597315	      6.36296836	     -0.31915047	     -4.18898063	     -2.16733445	     -2.54947776	      3.25971150	     29.43348971	     -3.47373819	     -1.48433097	    -51.71006187	    -12.76999618	    -13.51200322	     19.57458972	      8.14257974	      1.10673610	      2.15155706
